<svg width="23" height="27" viewBox="0 0 23 27" fill="none" xmlns="http://www.w3.org/2000/svg">
<path d="M15.1266 20.6875V21.625C15.1266 22.6196 14.7315 23.5734 14.0283 24.2766C13.325 24.9799 12.3712 25.375 11.3766 25.375C10.3821 25.375 9.42824 24.9799 8.72498 24.2766C8.02172 23.5734 7.62663 22.6196 7.62663 21.625V20.6875M21.436 18.7791C19.9313 16.9375 18.869 16 18.869 10.9229C18.869 6.27344 16.4948 4.61699 14.5407 3.8125C14.2811 3.70586 14.0368 3.46094 13.9577 3.19434C13.6149 2.02773 12.654 1 11.3766 1C10.0993 1 9.13777 2.02832 8.79851 3.19551C8.71941 3.46504 8.47507 3.70586 8.2155 3.8125C6.25905 4.61816 3.88718 6.26875 3.88718 10.9229C3.88425 16 2.82194 16.9375 1.31726 18.7791C0.69382 19.542 1.23991 20.6875 2.33034 20.6875H20.4288C21.5134 20.6875 22.0559 19.5385 21.436 18.7791Z" stroke="black" stroke-width="1.875" stroke-linecap="round" stroke-linejoin="round"/>
</svg>
