<?xml version="1.0" encoding="UTF-8"?>
<svg version="1.1" xmlns="http://www.w3.org/2000/svg" width="1001" height="155">
<path d="M0 0 C1.73233177 -0.00872064 1.73233177 -0.00872064 3.49966013 -0.01761746 C6.72022582 -0.02974358 9.94019093 -0.02384393 13.16073377 -0.01050565 C16.65869776 -0.00039065 20.15658662 -0.01338579 23.65454006 -0.02347898 C29.79005642 -0.03795443 35.92543212 -0.03747002 42.06095505 -0.02729034 C51.18448522 -0.0121941 60.30789617 -0.01987773 69.43142548 -0.03212357 C85.72361119 -0.05321636 102.01573426 -0.05134914 118.30792597 -0.03980792 C132.56523028 -0.02975742 146.8225116 -0.02711341 161.07981873 -0.0318985 C162.4967683 -0.03235681 162.4967683 -0.03235681 163.94234311 -0.03282438 C167.77663096 -0.03406967 171.61091881 -0.03534327 175.44520664 -0.03666343 C211.43552982 -0.04890759 247.42581304 -0.03779267 283.41613005 -0.01627585 C315.41213077 0.00270748 347.40806783 0.00100901 379.40406799 -0.01811981 C415.32731765 -0.0395246 451.25053197 -0.04803934 487.17378712 -0.03567076 C491.00120862 -0.03438783 494.82863012 -0.03313647 498.65605164 -0.0318985 C499.59850457 -0.03158219 500.5409575 -0.03126588 501.51196962 -0.03093999 C515.76254162 -0.02638441 530.01308814 -0.03172176 544.26365662 -0.04181671 C560.46239166 -0.0532343 576.66105411 -0.05043609 592.85978007 -0.02869374 C601.93278297 -0.01691842 611.00562878 -0.01622508 620.07862772 -0.03127843 C626.13141292 -0.04021583 632.18407159 -0.03472436 638.23683797 -0.01725936 C641.6906418 -0.0077011 645.14413249 -0.00457898 648.59792697 -0.01888329 C652.31088175 -0.03092995 656.02296239 -0.01869096 659.73587036 0 C660.81838251 -0.00936466 661.90089465 -0.01872933 663.0162102 -0.02837777 C670.21022641 0.04471954 670.21022641 0.04471954 673.53222895 2.36127663 C675.31566456 5.22139349 675.3711494 7.17295646 675.37586975 10.5381546 C675.38714905 11.77475327 675.39842834 13.01135193 675.41004944 14.28542328 C675.40227248 15.65299459 675.39407982 17.02056359 675.38551331 18.38813019 C675.39093432 19.83049476 675.39805687 21.27285379 675.40675354 22.71520233 C675.42499264 26.63053646 675.41791719 30.54544911 675.4052372 34.46079063 C675.39511247 38.55755375 675.4045014 42.6542807 675.41078186 46.75104523 C675.41805982 53.63095329 675.40846674 60.51068961 675.38941956 67.39057159 C675.36765042 75.34550886 675.3747017 83.30003607 675.39672518 91.2549634 C675.41487502 98.08396049 675.41743957 104.9128341 675.4069705 111.74184752 C675.40073324 115.82093496 675.39990621 119.89982965 675.41311646 123.97890472 C675.42466841 127.81383021 675.41666185 131.64822684 675.39353943 135.48309517 C675.38824874 136.89078455 675.38977236 138.29851841 675.39859009 139.70619011 C675.40951297 141.62696879 675.39338916 143.54784469 675.37586975 145.46857452 C675.3736076 147.08129368 675.3736076 147.08129368 675.37129974 148.72659302 C674.69542288 152.45501526 673.9987635 153.32012044 670.86793518 155.50336456 C667.16439472 156.11858909 663.48246615 156.03914041 659.73587036 156.00672913 C658.58098252 156.01254289 657.42609467 156.01835665 656.23621023 156.02434659 C653.01564455 156.03647271 649.79567943 156.03057305 646.57513659 156.01723478 C643.0771726 156.00711977 639.57928375 156.02011491 636.0813303 156.03020811 C629.94581394 156.04468356 623.81043824 156.04419915 617.67491531 156.03401947 C608.55138514 156.01892323 599.42797419 156.02660686 590.30444488 156.0388527 C574.01225917 156.05994549 557.7201361 156.05807826 541.42794439 156.04653705 C527.17064008 156.03648655 512.91335876 156.03384254 498.65605164 156.03862762 C497.71141859 156.03893316 496.76678554 156.03923871 495.79352725 156.0395535 C491.9592394 156.0407988 488.12495155 156.04207239 484.29066372 156.04339256 C448.30034054 156.05563672 412.31005732 156.0445218 376.31974031 156.02300497 C344.32373959 156.00402164 312.32780254 156.00572012 280.33180237 156.02484894 C244.40855272 156.04625372 208.48533839 156.05476847 172.56208324 156.04239988 C168.73466175 156.04111696 164.90724024 156.0398656 161.07981873 156.03862762 C160.13736579 156.03831132 159.19491286 156.03799501 158.22390074 156.03766911 C143.97332874 156.03311353 129.72278222 156.03845089 115.47221375 156.04854584 C99.2734787 156.05996343 83.07481625 156.05716521 66.87609029 156.03542286 C57.80308739 156.02364755 48.73024158 156.02295421 39.65724264 156.03800756 C33.60445745 156.04694496 27.55179877 156.04145349 21.49903239 156.02398848 C18.04522856 156.01443022 14.59173787 156.0113081 11.13794339 156.02561241 C7.42498861 156.03765907 3.71290798 156.02542009 0 156.00672913 C-1.08251215 156.01609379 -2.16502429 156.02545846 -3.28033984 156.0351069 C-10.48834238 155.96186747 -10.48834238 155.96186747 -13.7953825 153.60636854 C-15.32662312 151.19726574 -15.64531837 149.85030543 -15.67796326 147.0102005 C-15.69778259 146.11736359 -15.71760193 145.22452667 -15.73802185 144.30463409 C-15.73971375 142.9102713 -15.73971375 142.9102713 -15.74143982 141.48773956 C-15.7570697 140.62680695 -15.77269958 139.76587433 -15.7888031 138.87885284 C-15.84130428 135.6706357 -15.85965287 132.46193298 -15.88206482 129.25336456 C-15.96456482 122.07586456 -16.04706482 114.89836456 -16.13206482 107.50336456 C-32.30206482 107.50336456 -48.47206482 107.50336456 -65.13206482 107.50336456 C-66.12206482 110.47336456 -67.11206482 113.44336456 -68.13206482 116.50336456 C-69.72818523 120.53637866 -71.43426207 124.51123378 -73.13206482 128.50336456 C-81.38206482 128.50336456 -89.63206482 128.50336456 -98.13206482 128.50336456 C-93.84867295 117.10097541 -89.13785469 105.90241756 -84.38206482 94.69086456 C-83.54677355 92.7171399 -82.71165239 90.74334323 -81.87669373 88.76947784 C-77.64208836 78.76333643 -73.39386159 68.76299931 -69.13987732 58.76508331 C-68.74578674 57.83868546 -68.35169617 56.9122876 -67.94566345 55.95781708 C-66.06612421 51.54009098 -64.1850611 47.12302592 -62.30101013 42.70722198 C-61.6274893 41.12625644 -60.9539857 39.54528356 -60.28050232 37.96430206 C-59.97411835 37.24767899 -59.66773438 36.53105591 -59.35206604 35.79271698 C-58.18426068 33.04903254 -57.07552832 30.33375506 -56.13206482 27.50336456 C-45.90206482 27.50336456 -35.67206482 27.50336456 -25.13206482 27.50336456 C-22.16206482 34.43336456 -19.19206482 41.36336456 -16.13206482 48.50336456 C-16.10628357 45.37352081 -16.08050232 42.24367706 -16.05393982 39.01898956 C-16.01552598 35.98732257 -15.97036355 32.95582605 -15.92454529 29.924263 C-15.89632203 27.81757496 -15.87511426 25.71078077 -15.86106873 23.6039505 C-15.83965821 20.57507676 -15.79301722 17.54748125 -15.74143982 14.51898956 C-15.74021118 13.57718842 -15.73898254 12.63538727 -15.73771667 11.66504669 C-15.71799805 10.78443573 -15.69827942 9.90382477 -15.67796326 8.99652863 C-15.66463959 7.83736938 -15.66463959 7.83736938 -15.65104675 6.65479279 C-13.76085646 -1.18094961 -6.52050245 -0.05640798 0 0 Z M-41.13206482 48.50336456 C-43.27272357 53.73431472 -45.40885256 58.96708228 -47.54075623 64.20160675 C-48.26704368 65.98304202 -48.99457878 67.76396915 -49.72337341 69.54438019 C-50.76912052 72.09970237 -51.81040568 74.65680268 -52.85081482 77.21430206 C-53.17892151 78.01330933 -53.5070282 78.81231659 -53.84507751 79.63553619 C-55.52453548 83.44559006 -55.52453548 83.44559006 -56.13206482 87.50336456 C-45.90206482 87.50336456 -35.67206482 87.50336456 -25.13206482 87.50336456 C-26.05784305 82.87447339 -27.48248009 78.89289131 -29.29222107 74.57758331 C-29.60155075 73.82999252 -29.91088043 73.08240173 -30.22958374 72.31215668 C-31.21365662 69.93660112 -32.20400984 67.56372351 -33.19456482 65.19086456 C-33.86490354 63.57580314 -34.53483002 61.96057055 -35.20433044 60.34516144 C-36.84214064 56.3958974 -38.48558645 52.44902219 -40.13206482 48.50336456 C-40.46206482 48.50336456 -40.79206482 48.50336456 -41.13206482 48.50336456 Z " fill="#F8BE3B" transform="translate(326.13206481933594,-0.5033645629882813)"/>
<path d="M0 0 C10.786875 -0.0825 21.57375 -0.165 32.6875 -0.25 C36.06701904 -0.28641602 39.44653809 -0.32283203 42.9284668 -0.36035156 C45.64371101 -0.37204737 48.3589623 -0.38223707 51.07421875 -0.390625 C52.10419731 -0.40630524 52.10419731 -0.40630524 53.15498352 -0.42230225 C64.20578775 -0.58181808 75.39857134 0.06656379 84.4375 7.125 C92.00475328 14.58026433 96.14068841 23.75520416 96.43115234 34.35595703 C96.46563936 46.68374024 93.90158173 57.86416612 85 67 C80.875 70 80.875 70 78 70 C78.45439453 70.86802246 78.90878906 71.73604492 79.37695312 72.63037109 C81.05831725 75.8448664 82.73431665 79.06213275 84.40869141 82.28027344 C85.13476363 83.67394226 85.86229756 85.06685056 86.59130859 86.45898438 C87.63762511 88.45766245 88.67869127 90.45899747 89.71875 92.4609375 C90.21091003 93.39696304 90.21091003 93.39696304 90.7130127 94.35189819 C93 98.77225659 93 98.77225659 93 101 C84.75 101 76.5 101 68 101 C63.71 92.42 59.42 83.84 55 75 C43.78 74.67 32.56 74.34 21 74 C21 82.91 21 91.82 21 101 C14.07 101 7.14 101 0 101 C0 67.67 0 34.34 0 0 Z " fill="#565553" transform="translate(460,27)"/>
<path d="M0 0 C17.7890625 -0.12375 17.7890625 -0.12375 35.9375 -0.25 C39.66667725 -0.28641602 43.39585449 -0.32283203 47.23803711 -0.36035156 C51.83117676 -0.37841797 51.83117676 -0.37841797 53.98902893 -0.3817749 C55.4795155 -0.38787247 56.96998373 -0.4018471 58.46034241 -0.42230225 C70.50565686 -0.57919921 79.19305733 0.65921132 88.28125 9.15234375 C95.77176244 17.20464463 97.98687773 28.31847577 98 39 C97.3189926 49.47513203 94.47272694 59.30082679 87 67 C85.01383927 68.35386237 83.01505439 69.68952925 81 71 C81.24645264 71.51796143 81.49290527 72.03592285 81.74682617 72.56958008 C82.89468338 74.9834287 84.041094 77.39796184 85.1875 79.8125 C85.57486328 80.62654297 85.96222656 81.44058594 86.36132812 82.27929688 C89.3092269 88.49181082 92.15351753 94.73773857 95 101 C86.42 101 77.84 101 69 101 C67.411875 97.98875 65.82375 94.9775 64.1875 91.875 C63.6927417 90.93769043 63.1979834 90.00038086 62.68823242 89.03466797 C56 76.33959976 56 76.33959976 56 74 C44.78 74 33.56 74 22 74 C22 82.91 22 91.82 22 101 C14.74 101 7.48 101 0 101 C0 67.67 0 34.34 0 0 Z M22 22 C22 31.9 22 41.8 22 52 C27.85371884 52.0690478 33.70601216 52.12872861 39.55981445 52.16479492 C41.5491211 52.17983724 43.53839483 52.20027623 45.52758789 52.22631836 C48.39477689 52.26290246 51.26152559 52.27977218 54.12890625 52.29296875 C55.01147598 52.30845261 55.89404572 52.32393646 56.80335999 52.33988953 C63.01873142 52.34156546 67.8757288 51.49941696 72.875 47.5 C75.28399131 44.28801159 75.19223142 40.98586653 75.25 37.125 C75.28867188 35.58199219 75.28867188 35.58199219 75.328125 34.0078125 C74.86958265 29.80450763 73.20632599 27.20632599 70.25 24.25 C64.79438709 21.21910394 57.87812562 21.86384982 51.78515625 21.90234375 C50.50154457 21.90446617 50.50154457 21.90446617 49.19200134 21.90663147 C46.48213069 21.9121901 43.77234532 21.92473475 41.0625 21.9375 C39.21549599 21.94252035 37.36849068 21.94708232 35.52148438 21.95117188 C31.01426432 21.96129136 26.50722665 21.98087457 22 22 Z " fill="#555555" transform="translate(124,27)"/>
<path d="M0 0 C28.71 0 57.42 0 87 0 C87 6.93 87 13.86 87 21 C65.22 21 43.44 21 21 21 C21 27.6 21 34.2 21 41 C42.78 41 64.56 41 87 41 C87 47.27 87 53.54 87 60 C65.22 60 43.44 60 21 60 C21 66.6 21 73.2 21 80 C42.78 80 64.56 80 87 80 C87 86.93 87 93.86 87 101 C58.29 101 29.58 101 0 101 C0 67.67 0 34.34 0 0 Z " fill="#575553" transform="translate(884,27)"/>
<path d="M0 0 C28.71 0 57.42 0 87 0 C87 6.93 87 13.86 87 21 C65.22 21 43.44 21 21 21 C21 27.6 21 34.2 21 41 C42.78 41 64.56 41 87 41 C87 47.27 87 53.54 87 60 C65.22 60 43.44 60 21 60 C21 66.6 21 73.2 21 80 C42.78 80 64.56 80 87 80 C87 86.93 87 93.86 87 101 C58.29 101 29.58 101 0 101 C0 67.67 0 34.34 0 0 Z " fill="#575553" transform="translate(569,27)"/>
<path d="M0 0 C9.57 0 19.14 0 29 0 C38.89524331 23.24938729 48.76178674 46.510566 58.57739258 69.79370117 C58.95838608 70.69704697 59.33937958 71.60039276 59.73191833 72.53111267 C60.46960462 74.28033875 61.20689171 76.02973324 61.94374084 77.77931213 C63.57192903 81.64037406 65.20968461 85.49640475 66.88134766 89.33886719 C67.30798454 90.32172195 67.30798454 90.32172195 67.74324036 91.32443237 C68.49131876 93.04307758 69.2441142 94.7596675 69.99731445 96.47607422 C71 99 71 99 71 101 C63.41 101 55.82 101 48 101 C44.72860508 94.02102418 41.71084124 87.22890997 39 80 C14.25 79.505 14.25 79.505 -11 79 C-11.33 80.65 -11.66 82.3 -12 84 C-12.50344088 85.41701459 -13.04677003 86.82048862 -13.62890625 88.20703125 C-13.91064697 88.88483643 -14.1923877 89.5626416 -14.48266602 90.26098633 C-14.83901123 91.10298584 -15.19535645 91.94498535 -15.5625 92.8125 C-16.696875 95.514375 -17.83125 98.21625 -19 101 C-26.59 101 -34.18 101 -42 101 C-41.11694512 96.58472562 -39.82699179 92.87219851 -38.0703125 88.78125 C-37.76808777 88.06678207 -37.46586304 87.35231415 -37.15447998 86.61619568 C-36.14908128 84.24222488 -35.13707143 81.87113288 -34.125 79.5 C-33.41507369 77.82774786 -32.70561045 76.15529906 -31.99658203 74.48266602 C-30.86839869 71.82195791 -29.73962965 69.16150671 -28.60897827 66.50184631 C-25.69726012 59.65245946 -22.80576571 52.79473837 -19.921875 45.93359375 C-18.65328046 42.91807121 -17.38449401 39.90262949 -16.11566162 36.88720703 C-15.29693771 34.94066849 -14.47876996 32.99389591 -13.66119385 31.046875 C-12.50284547 28.28945244 -11.34157392 25.53327704 -10.1796875 22.77734375 C-9.84580017 21.98065781 -9.51191284 21.18397186 -9.16790771 20.36314392 C-6.2656197 13.49134111 -3.13206265 6.78613573 0 0 Z " fill="#565553" transform="translate(711,27)"/>
<path d="M0 0 C8.17469947 7.60615834 11.75543888 17.34760522 13.640625 28.18359375 C13.640625 29.83359375 13.640625 31.48359375 13.640625 33.18359375 C6.380625 33.18359375 -0.879375 33.18359375 -8.359375 33.18359375 C-9.349375 29.22359375 -9.349375 29.22359375 -10.359375 25.18359375 C-12.42608751 19.96044758 -15.38051992 16.8194582 -20.359375 14.18359375 C-26.34256621 12.0395524 -31.91059124 11.81717419 -38.234375 11.80859375 C-39.17667969 11.78410156 -40.11898437 11.75960937 -41.08984375 11.734375 C-48.30172916 11.70445016 -54.63951843 12.94074253 -60.20996094 17.796875 C-67.07772625 24.88901957 -67.85465689 33.29944646 -67.77905273 42.79760742 C-67.50725874 50.70934713 -66.09830578 58.01902852 -60.171875 63.68359375 C-53.16618653 68.66829806 -45.71355211 69.6745082 -37.296875 69.55859375 C-36.0274707 69.57599609 -36.0274707 69.57599609 -34.73242188 69.59375 C-26.4592892 69.55547799 -19.99393519 67.4737347 -13.83203125 61.7890625 C-9.97496175 57.58414057 -9.29106501 53.77373383 -8.359375 48.18359375 C-1.099375 48.18359375 6.160625 48.18359375 13.640625 48.18359375 C13.48825001 59.15459336 9.96261211 71.2191728 2.203125 79.37109375 C-13.06043108 92.44926373 -30.26088435 93.17697345 -49.359375 91.87109375 C-61.87895593 90.45666781 -72.50676421 85.46895531 -80.60546875 75.65234375 C-90.42273822 61.83382637 -90.68796082 43.55841399 -89.359375 27.18359375 C-87.07867166 14.30280329 -80.88953493 3.93321741 -70.359375 -3.81640625 C-50.8264443 -16.17622681 -17.98849273 -13.84875682 0 0 Z " fill="#565553" transform="translate(432.359375,36.81640625)"/>
<path d="M0 0 C1.25159912 0.00523682 2.50319824 0.01047363 3.79272461 0.01586914 C4.78942421 0.01799156 4.78942421 0.01799156 5.80625916 0.02015686 C7.93590735 0.02577021 10.06545175 0.03832485 12.19506836 0.05102539 C13.63582205 0.05603868 15.07657739 0.06060188 16.51733398 0.06469727 C20.05577938 0.07574394 23.59416375 0.09301747 27.13256836 0.11352539 C37.28882757 23.34252777 47.17692552 46.68243909 57.00366211 70.05249023 C58.59504351 73.83707842 60.18987422 77.62019079 61.78703308 81.40234375 C62.96778824 84.20061175 64.14382246 87.00085955 65.32006836 89.80102539 C65.72378662 90.75541504 66.12750488 91.70980469 66.54345703 92.69311523 C66.89641846 93.53696777 67.24937988 94.38082031 67.61303711 95.25024414 C67.91105225 95.95882568 68.20906738 96.66740723 68.51611328 97.39746094 C69.13256836 99.11352539 69.13256836 99.11352539 69.13256836 101.11352539 C61.21256836 101.11352539 53.29256836 101.11352539 45.13256836 101.11352539 C40.13256836 91.11352539 40.13256836 91.11352539 36.13256836 81.11352539 C11.87756836 80.61852539 11.87756836 80.61852539 -12.86743164 80.11352539 C-13.85743164 83.41352539 -14.84743164 86.71352539 -15.86743164 90.11352539 C-17.40245085 93.85810747 -19.13151227 97.4540197 -20.86743164 101.11352539 C-28.78743164 101.11352539 -36.70743164 101.11352539 -44.86743164 101.11352539 C-44.06289781 97.09085624 -43.16895476 94.13752289 -41.59399414 90.42602539 C-40.86539185 88.69884277 -40.86539185 88.69884277 -40.12207031 86.93676758 C-39.57891545 85.66232878 -39.03570053 84.38791558 -38.49243164 83.11352539 C-37.92337802 81.76898924 -37.35478811 80.42425675 -36.78662109 79.0793457 C-35.52415465 76.09296001 -34.25891841 73.10776663 -32.99194336 70.12329102 C-30.67344835 64.65963958 -28.36575109 59.19145011 -26.05883789 53.72290039 C-23.59653797 47.88650657 -21.13420905 42.05012746 -18.66870117 36.21508789 C-18.28300964 35.30223022 -17.89731812 34.38937256 -17.49993896 33.44885254 C-16.7388774 31.64802967 -15.97753021 29.84732748 -15.21588135 28.04675293 C-13.31749909 23.55669678 -11.42687899 19.06360529 -9.54956055 14.56469727 C-8.9956237 13.23997406 -8.9956237 13.23997406 -8.43049622 11.88848877 C-7.72895799 10.20978489 -7.02939366 8.53025436 -6.33207703 6.84979248 C-3.52499775 0.1395593 -3.52499775 0.1395593 0 0 Z M11.13256836 22.11352539 C8.99182184 27.20197359 6.8556958 32.29232654 4.72387695 37.38452148 C3.99761415 39.11747878 3.27007918 40.84990348 2.54125977 42.58178711 C1.49544771 45.0675472 0.45418716 47.5551706 -0.58618164 50.04321289 C-0.91428833 50.82034637 -1.24239502 51.59747986 -1.58044434 52.39816284 C-3.26518353 56.12787699 -3.26518353 56.12787699 -3.86743164 60.11352539 C6.69256836 60.11352539 17.25256836 60.11352539 28.13256836 60.11352539 C26.58569336 56.25665039 25.03881836 52.39977539 23.44506836 48.42602539 C19.94187399 39.67965071 16.4620175 30.9278039 13.13256836 22.11352539 C12.47256836 22.11352539 11.81256836 22.11352539 11.13256836 22.11352539 Z " fill="#555555" transform="translate(44.867431640625,26.886474609375)"/>
<path d="M0 0 C10.23 0 20.46 0 31 0 C32.546875 3.691875 34.09375 7.38375 35.6875 11.1875 C36.16405029 12.3221167 36.64060059 13.4567334 37.1315918 14.62573242 C39.23830265 19.66846937 41.28711092 24.72050923 43.2109375 29.8359375 C47.14922715 40.15972215 51.59382795 50.27966245 55.9375 60.4375 C56.82768158 62.52399997 57.7176569 64.61058796 58.60742188 66.69726562 C59.47656063 68.7343758 60.34570123 70.77148518 61.21484375 72.80859375 C61.63317474 73.78992279 62.05150574 74.77125183 62.48251343 75.78231812 C64.29281188 80.02428421 66.10913172 84.26275502 67.96533203 88.48486328 C68.39417442 89.46556541 68.39417442 89.46556541 68.8316803 90.46607971 C69.5639317 92.13690006 70.30230018 93.80503604 71.04125977 95.47290039 C72 98 72 98 72 101 C64.41 101 56.82 101 49 101 C47.845 98.23625 46.69 95.4725 45.5 92.625 C45.13455078 91.75568848 44.76910156 90.88637695 44.39257812 89.99072266 C43.9662207 88.96277588 43.9662207 88.96277588 43.53125 87.9140625 C43.23798828 87.2123291 42.94472656 86.5105957 42.64257812 85.78759766 C42 84 42 84 42 82 C41.34 82 40.68 82 40 82 C40 81.34 40 80.68 40 80 C23.83 80 7.66 80 -9 80 C-9.99 82.97 -10.98 85.94 -12 89 C-13.59612041 93.0330141 -15.30219725 97.00786922 -17 101 C-25.25 101 -33.5 101 -42 101 C-37.71660813 89.59761085 -33.00578987 78.399053 -28.25 67.1875 C-27.41470873 65.21377533 -26.57958757 63.23997867 -25.74462891 61.26611328 C-21.51002354 51.25997187 -17.26179677 41.25963475 -13.0078125 31.26171875 C-12.61372192 30.33532089 -12.21963135 29.40892303 -11.81359863 28.45445251 C-9.93405939 24.03672642 -8.05299628 19.61966135 -6.16894531 15.20385742 C-5.49542448 13.62289188 -4.82192088 12.041919 -4.1484375 10.4609375 C-3.84205353 9.74431442 -3.53566956 9.02769135 -3.22000122 8.28935242 C-2.05219586 5.54566798 -0.9434635 2.83039049 0 0 Z M15 21 C12.85934125 26.23095016 10.72321226 31.46371772 8.59130859 36.69824219 C7.86502114 38.47967746 7.13748604 40.26060458 6.40869141 42.04101562 C5.3629443 44.59633781 4.32165914 47.15343812 3.28125 49.7109375 C2.95314331 50.50994476 2.62503662 51.30895203 2.2869873 52.13217163 C0.60752934 55.9422255 0.60752934 55.9422255 0 60 C10.23 60 20.46 60 31 60 C30.07422177 55.37110883 28.64958473 51.38952675 26.83984375 47.07421875 C26.53051407 46.32662796 26.22118439 45.57903717 25.90248108 44.80879211 C24.9184082 42.43323655 23.92805498 40.06035895 22.9375 37.6875 C22.26716128 36.07243857 21.5972348 34.45720598 20.92773438 32.84179688 C19.28992418 28.89253283 17.64647837 24.94565763 16 21 C15.67 21 15.34 21 15 21 Z " fill="#555554" transform="translate(270,27)"/>
<path d="M0 0 C33.33 0 66.66 0 101 0 C101 7.26 101 14.52 101 22 C87.8 22 74.6 22 61 22 C61 48.07 61 74.14 61 101 C54.07 101 47.14 101 40 101 C40 74.93 40 48.86 40 22 C26.8 22 13.6 22 0 22 C0 14.74 0 7.48 0 0 Z " fill="#555553" transform="translate(770,27)"/>
<path d="M0 0 C6.15683573 -0.068977 12.31232363 -0.12867975 18.46923828 -0.16479492 C20.56238353 -0.17985469 22.65549736 -0.20030671 24.74853516 -0.22631836 C27.76212328 -0.26282501 30.77529312 -0.27975473 33.7890625 -0.29296875 C34.72054108 -0.30845261 35.65201965 -0.32393646 36.61172485 -0.33988953 C41.84371682 -0.34123602 45.47592876 0.06323606 50 3 C54.20526578 7.64029327 54.34085319 12.24630542 54.28515625 18.26953125 C53.79717831 22.94208719 51.57346612 25.6081686 48.15167236 28.63496399 C45.63073504 30.23426427 44.28346697 30.36497363 41.32324219 30.34057617 C39.94226349 30.34023628 39.94226349 30.34023628 38.53338623 30.33988953 C37.54783752 30.32440567 36.56228882 30.30892181 35.546875 30.29296875 C34.53151672 30.28872391 33.51615845 30.28447906 32.47003174 30.28010559 C29.22975046 30.26332424 25.99009303 30.22567241 22.75 30.1875 C20.55209232 30.17245249 18.35417488 30.1587642 16.15625 30.14648438 C10.77040012 30.11597541 5.38589767 30.05725167 0 30 C0 20.1 0 10.2 0 0 Z " fill="#F8BE3B" transform="translate(481,49)"/>
<path d="M0 0 C3.00625949 3.53015069 4.63177632 7.50836034 6.35546875 11.7578125 C6.66196854 12.50207489 6.96846832 13.24633728 7.28425598 14.01315308 C7.92819327 15.58038816 8.5693081 17.14878553 9.20776367 18.71826172 C10.18804909 21.12634886 11.17826963 23.53016835 12.16992188 25.93359375 C12.79486091 27.45809157 13.41922988 28.98282324 14.04296875 30.5078125 C14.3397905 31.22865021 14.63661224 31.94948792 14.94242859 32.69216919 C17 37.76861722 17 37.76861722 17 40 C6.11 40 -4.78 40 -16 40 C-15.07786473 35.38932364 -13.66852549 31.41216293 -11.875 27.109375 C-11.41456299 25.99154633 -11.41456299 25.99154633 -10.94482422 24.85113525 C-10.29805406 23.28365472 -9.64908437 21.71708014 -8.99804688 20.15136719 C-7.99848118 17.74634562 -7.00653531 15.33828633 -6.015625 12.9296875 C-5.38586193 11.40606588 -4.75566869 9.88262198 -4.125 8.359375 C-3.82706543 7.63651306 -3.52913086 6.91365112 -3.22216797 6.16888428 C-1.11586085 1.11586085 -1.11586085 1.11586085 0 0 Z " fill="#F5BC3B" transform="translate(725,47)"/>
</svg>
