<svg width="29" height="29" viewBox="0 0 29 29" fill="none" xmlns="http://www.w3.org/2000/svg">
<g clip-path="url(#clip0_856_73)">
<path d="M28.2283 14.9971C28.2283 14.0454 28.1511 13.0886 27.9865 12.1523H14.7812V17.5435H22.3433C22.0295 19.2822 21.0212 20.8204 19.5448 21.7978V25.2958H24.0563C26.7056 22.8575 28.2283 19.2565 28.2283 14.9971Z" fill="#4285F4"/>
<path d="M14.7764 28.6747C18.5522 28.6747 21.7365 27.435 24.0566 25.295L19.5451 21.7969C18.2899 22.6508 16.6694 23.1344 14.7815 23.1344C11.1291 23.1344 8.0323 20.6703 6.92115 17.3574H2.26562V20.9635C4.64226 25.6911 9.48297 28.6747 14.7764 28.6747Z" fill="#34A853"/>
<path d="M6.92088 17.357C6.33444 15.6183 6.33444 13.7355 6.92088 11.9967V8.39062H2.2705C0.284833 12.3465 0.284833 17.0072 2.2705 20.9631L6.92088 17.357Z" fill="#FBBC04"/>
<path d="M14.7764 6.2151C16.7723 6.18424 18.7014 6.93529 20.1469 8.31394L24.144 4.31688C21.613 1.94025 18.2539 0.633618 14.7764 0.674772C9.48297 0.674772 4.64225 3.65842 2.26562 8.39111L6.916 11.9972C8.02201 8.67918 11.124 6.2151 14.7764 6.2151Z" fill="#EA4335"/>
</g>
<defs>
<clipPath id="clip0_856_73">
<rect width="28" height="28" fill="white" transform="translate(0.5 0.673828)"/>
</clipPath>
</defs>
</svg>
